<svg width="152" height="24" viewBox="0 0 152 24" fill="none" xmlns="http://www.w3.org/2000/svg">
<g id="Logomark">
<path id="Vector" d="M2.81958 23.8667H13.0393V13.647L2.81958 23.8667Z" fill="#B07882"/>
<path id="Vector_2" d="M20.3531 16.5529C22.5748 14.8851 24.0115 12.231 24.0115 9.23911C24.0115 4.19444 19.9266 0.106543 14.8849 0.0976562H0.254395V7.3966H14.8849V7.41437C15.8861 7.42326 16.6977 8.23788 16.6977 9.24208V23.8725H24.0115C24.0115 20.8747 22.5748 18.2206 20.3531 16.5529Z" fill="#B07882"/>
<path id="Vector_3" d="M0.254395 11.0491V21.2569L10.4622 11.0491H0.254395Z" fill="#B07882"/>
<path id="Vector_4" d="M36.992 19.6367C38.5294 20.0099 39.3291 20.5609 39.3291 21.7754C39.3291 23.147 38.2598 23.9556 36.7342 23.9556C35.6234 23.9556 34.5748 23.5706 33.7039 22.7944L34.4711 21.8821C35.1672 22.4834 35.8633 22.827 36.7668 22.827C37.5548 22.827 38.0554 22.4627 38.0554 21.9028C38.0554 21.3726 37.7651 21.0941 36.4143 20.7801C34.868 20.4069 33.9942 19.9507 33.9942 18.5999C33.9942 17.335 35.0339 16.4819 36.4765 16.4819C37.537 16.4819 38.3783 16.8048 39.1129 17.3943L38.4286 18.36C37.774 17.8712 37.1193 17.6135 36.4558 17.6135C35.7093 17.6135 35.2739 17.9986 35.2739 18.4874C35.2679 19.0561 35.5997 19.3049 36.992 19.6367Z" fill="#21154A"/>
<path id="Vector_5" d="M43.5531 18.0578L44.8091 20.9637H42.3061L43.5531 18.0578ZM42.9815 16.5322L39.7822 23.8519H41.0915L41.838 22.0983H45.2742L46.0118 23.8519H47.3626L44.1634 16.5322H42.9815Z" fill="#21154A"/>
<path id="Vector_6" d="M48.3372 16.5854V23.8518H53.4352V22.6876H49.6139V16.5854H48.3372Z" fill="#21154A"/>
<path id="Vector_7" d="M54.4927 16.5854V23.8518H59.9343V22.7084H55.7694V20.7563H59.4159V19.6158H55.7694V17.7259H59.881V16.5854H54.4927Z" fill="#21154A"/>
<path id="Vector_8" d="M63.9837 19.6367C65.5211 20.0099 66.3209 20.5609 66.3209 21.7754C66.3209 23.147 65.2515 23.9556 63.7259 23.9556C62.6151 23.9556 61.5665 23.5706 60.6956 22.7944L61.4628 21.8821C62.1589 22.4834 62.855 22.827 63.7585 22.827C64.5465 22.827 65.0471 22.4627 65.0471 21.9028C65.0471 21.3726 64.7568 21.0941 63.406 20.7801C61.8597 20.4069 60.9859 19.9507 60.9859 18.5999C60.9859 17.335 62.0256 16.4819 63.4682 16.4819C64.5287 16.4819 65.37 16.8048 66.1046 17.3943L65.4203 18.36C64.7657 17.8712 64.111 17.6135 63.4475 17.6135C62.701 17.6135 62.2656 17.9986 62.2656 18.4874C62.2596 19.0561 62.5914 19.3049 63.9837 19.6367Z" fill="#21154A"/>
<path id="Vector_9" d="M46.5244 0.213379V6.32446V12.5214H48.6869V6.32446V0.213379H46.5244Z" fill="#21154A"/>
<path id="Vector_10" d="M57.2299 12.7317C53.6426 12.7317 50.9707 9.93532 50.9707 6.3836C50.9707 2.86744 53.5893 0 57.3188 0C59.5878 0 60.9594 0.790907 62.1354 1.91655L60.7461 3.51617C59.7626 2.60084 58.708 1.98765 57.301 1.98765C54.946 1.98765 53.2398 3.92199 53.2398 6.34806C53.2398 8.77413 54.946 10.744 57.301 10.744C58.8117 10.744 59.7804 10.1279 60.8349 9.14441L62.2242 10.5515C60.9416 11.8874 59.5345 12.7317 57.2299 12.7317Z" fill="#21154A"/>
<path id="Vector_11" d="M72.0677 0.213379V5.32916H66.1966V0.213379H64.0342V12.5214H66.1966V7.33459H72.0677V12.5214H74.2302V0.213379H72.0677Z" fill="#21154A"/>
<path id="Vector_12" d="M82.2667 2.71053L84.3935 7.63376H80.1546L82.2667 2.71053ZM81.298 0.124512L75.8831 12.5214H78.0988L79.3637 9.55033H85.1845L86.4345 12.5214H88.7214L83.3064 0.124512H81.298Z" fill="#21154A"/>
<path id="Vector_13" d="M107.212 2.18327H104.785V10.5516H107.212C109.795 10.5516 111.483 8.80978 111.483 6.38371C111.486 3.95764 109.798 2.18327 107.212 2.18327ZM107.212 12.5214H102.623V0.213379H107.212C111.08 0.213379 113.752 2.86754 113.752 6.34817C113.755 9.83175 111.08 12.5214 107.212 12.5214Z" fill="#21154A"/>
<path id="Vector_14" d="M120.488 5.3824C123.092 6.01631 124.446 6.94645 124.446 9.0052C124.446 11.3246 122.636 12.6991 120.05 12.6991C118.169 12.6991 116.391 12.0474 114.916 10.7292L116.217 9.18294C117.396 10.202 118.572 10.7825 120.103 10.7825C121.439 10.7825 122.283 10.1664 122.283 9.21849C122.283 8.32093 121.792 7.84697 119.505 7.31969C116.886 6.68577 115.408 5.91264 115.408 3.62876C115.408 1.48411 117.168 0.0415039 119.611 0.0415039C121.404 0.0415039 122.828 0.586546 124.078 1.58778L122.917 3.22294C121.809 2.39647 120.701 1.95806 119.576 1.95806C118.311 1.95806 117.57 2.60975 117.57 3.43621C117.567 4.39893 118.13 4.81957 120.488 5.3824Z" fill="#21154A"/>
<path id="Vector_15" d="M132.408 1.98765C129.965 1.98765 128.258 3.93976 128.258 6.34806C128.258 8.75635 130 10.744 132.444 10.744C134.888 10.744 136.594 8.7919 136.594 6.3836C136.591 3.97531 134.852 1.98765 132.408 1.98765ZM132.408 12.7317C128.629 12.7317 125.989 9.86719 125.989 6.3836C125.989 2.90298 128.661 0 132.441 0C136.221 0 138.86 2.86448 138.86 6.34806C138.86 9.83164 136.188 12.7317 132.408 12.7317Z" fill="#21154A"/>
<path id="Vector_16" d="M149.619 0.213379V8.72388L143.025 0.213379H141.022V12.5214H143.149V3.76509L149.936 12.5214H151.746V0.213379H149.619Z" fill="#21154A"/>
<path id="Vector_17" d="M36.3905 6.61181V2.1803H39.3794C40.9967 2.1803 42.0335 2.93567 42.0335 4.39605C42.0335 5.71424 41.0145 6.61181 39.3794 6.61181H36.3905ZM42.392 7.6634C43.5354 7.09761 44.2345 5.85051 44.2345 4.34569C44.2345 1.83076 42.4245 0.213379 39.5571 0.213379H34.228V12.5214H36.3905V8.56391H39.169C40.8042 8.56391 41.8232 9.46148 41.8232 10.7797C41.8232 10.8448 41.8232 12.5214 41.8232 12.5214H44.0212V10.833C44.0241 9.43185 43.485 8.25881 42.392 7.6634Z" fill="#21154A"/>
<path id="Vector_18" d="M92.6226 6.61181V2.1803H95.6115C97.2289 2.1803 98.2657 2.93567 98.2657 4.39605C98.2657 5.71424 97.2466 6.61181 95.6115 6.61181H92.6226ZM98.6241 7.6634C99.7675 7.09761 100.467 5.85051 100.467 4.34569C100.467 1.83076 98.6567 0.213379 95.7893 0.213379H90.4602V12.5214H92.6226V8.56391H95.4012C97.0363 8.56391 98.0553 9.46148 98.0553 10.7797C98.0553 10.8448 98.0553 12.5214 98.0553 12.5214H100.253V10.833C100.256 9.43185 99.7172 8.25881 98.6241 7.6634Z" fill="#21154A"/>
<path id="Vector_19" d="M73.8509 17.7703H72.3668V20.386H73.8509C74.8166 20.386 75.4179 19.8557 75.4179 19.0766C75.4179 18.2176 74.8077 17.7703 73.8509 17.7703ZM73.8094 21.5412H72.3668V23.8784H71.0901V16.6121H73.9545C75.646 16.6121 76.7154 17.5659 76.7154 19.05C76.7183 20.6881 75.409 21.5412 73.8094 21.5412Z" fill="#21154A"/>
<path id="Vector_20" d="M77.9358 16.6091V23.8755H83.3774V22.735H79.2125V20.7829H82.859V19.6395H79.2125V17.7496H83.327V16.6091H77.9358Z" fill="#21154A"/>
<path id="Vector_21" d="M92.042 16.6091V23.8755H93.3187V20.9162H96.983V19.755H93.3187V17.7703H97.451V16.6091H92.042Z" fill="#21154A"/>
<path id="Vector_22" d="M101.986 17.6579C100.544 17.6579 99.5364 18.8102 99.5364 20.2321C99.5364 21.654 100.564 22.827 102.007 22.827C103.45 22.827 104.457 21.6747 104.457 20.2528C104.46 18.831 103.432 17.6579 101.986 17.6579ZM101.986 24C99.7527 24 98.1975 22.3086 98.1975 20.2528C98.1975 18.197 99.7764 16.4849 102.007 16.4849C104.24 16.4849 105.796 18.1763 105.796 20.2321C105.799 22.2879 104.22 24 101.986 24Z" fill="#21154A"/>
<path id="Vector_23" d="M120.094 16.6091L117.882 20.0453L115.672 16.6091H114.309V23.8755H115.565V18.6856L117.84 22.0893H117.882L120.177 18.6649V23.8755H121.454V16.6091H120.094Z" fill="#21154A"/>
<path id="Vector_24" d="M120.091 16.6091L117.882 20.0453L115.672 16.6091H114.309V23.8755H115.565V18.6856L117.84 22.0893H117.882L120.177 18.6649V23.8755H121.454V16.6091H120.091Z" fill="#21154A"/>
<path id="Vector_25" d="M126.196 18.0844L127.452 20.9904H124.949L126.196 18.0844ZM125.625 16.5559L122.426 23.8756H123.735L124.481 22.1219H127.918L128.655 23.8756H130.006L126.807 16.5559H125.625Z" fill="#21154A"/>
<path id="Vector_26" d="M136.061 16.6091V21.6331L132.165 16.6091H130.983V23.8755H132.239V18.7064L136.247 23.8755H137.317V16.6091H136.061Z" fill="#21154A"/>
<path id="Vector_27" d="M142.29 24C140.172 24 138.594 22.3501 138.594 20.2528C138.594 18.1763 140.14 16.4849 142.341 16.4849C143.68 16.4849 144.491 16.9529 145.184 17.6164L144.364 18.5614C143.783 18.0223 143.161 17.6579 142.329 17.6579C140.937 17.6579 139.929 18.8013 139.929 20.2321C139.929 21.6658 140.937 22.827 142.329 22.827C143.221 22.827 143.792 22.4627 144.417 21.8821L145.238 22.7115C144.479 23.5024 143.65 24 142.29 24Z" fill="#21154A"/>
<path id="Vector_28" d="M146.307 16.6091V23.8755H151.746V22.735H147.584V20.7829H151.227V19.6395H147.584V17.7496H151.695V16.6091H146.307Z" fill="#21154A"/>
<path id="Vector_29" d="M85.8983 20.3623V17.7467H87.6638C88.6176 17.7467 89.2308 18.194 89.2308 19.056C89.2308 19.835 88.6295 20.3653 87.6638 20.3653H85.8983V20.3623ZM89.4411 20.9814C90.1165 20.6467 90.5283 19.9121 90.5283 19.0234C90.5283 17.5393 89.4589 16.5825 87.7675 16.5825H84.6216V23.8489H85.8983V21.5117H87.5394C88.5051 21.5117 89.1064 22.0419 89.1064 22.821C89.1064 22.821 89.1064 23.8104 89.1064 23.8489H90.4039V22.8536C90.4068 22.0271 90.0899 21.3339 89.4411 20.9814Z" fill="#21154A"/>
<path id="Vector_30" d="M108.183 20.3623V17.7467H109.949C110.903 17.7467 111.516 18.194 111.516 19.056C111.516 19.835 110.914 20.3653 109.949 20.3653H108.183V20.3623ZM111.729 20.9814C112.404 20.6467 112.816 19.9121 112.816 19.0234C112.816 17.5393 111.747 16.5825 110.055 16.5825H106.909V23.8489H108.186V21.5117H109.827C110.793 21.5117 111.394 22.0419 111.394 22.821C111.394 22.821 111.394 23.8104 111.394 23.8489H112.692V22.8536C112.692 22.0271 112.375 21.3339 111.729 20.9814Z" fill="#21154A"/>
</g>
</svg>
